<svg width="22" height="22" viewBox="0 0 22 22" fill="" xmlns="http://www.w3.org/2000/svg">
<path d="M11.0005 0.0908203C8.03785 0.0908203 7.66605 0.103775 6.50244 0.15673C5.34112 0.209911 4.54841 0.393775 3.8548 0.663548C3.13732 0.942184 2.5287 1.31491 1.92236 1.9215C1.31556 2.52787 0.94284 3.1365 0.663303 3.85377C0.392856 4.54764 0.208771 5.34059 0.1565 6.5015C0.104456 7.66514 0.0908203 8.03718 0.0908203 10.9999C0.0908203 13.9626 0.104002 14.3333 0.156728 15.497C0.210135 16.6583 0.393993 17.451 0.66353 18.1447C0.942385 18.8622 1.3151 19.4708 1.92167 20.0772C2.52779 20.684 3.13641 21.0576 3.85343 21.3363C4.5475 21.606 5.34043 21.7899 6.50154 21.8431C7.66514 21.896 8.03672 21.909 10.9991 21.909C13.962 21.909 14.3327 21.896 15.4963 21.8431C16.6576 21.7899 17.4512 21.606 18.1453 21.3363C18.8625 21.0576 19.4702 20.684 20.0764 20.0772C20.6832 19.4708 21.0559 18.8622 21.3354 18.1449C21.6036 17.451 21.7877 16.6581 21.8422 15.4972C21.8945 14.3335 21.9081 13.9626 21.9081 10.9999C21.9081 8.03718 21.8945 7.66537 21.8422 6.50173C21.7877 5.34037 21.6036 4.54764 21.3354 3.854C21.0559 3.1365 20.6832 2.52787 20.0764 1.9215C19.4696 1.31468 18.8628 0.941957 18.1446 0.663548C17.4492 0.393775 16.656 0.209911 15.4947 0.15673C14.3311 0.103775 13.9606 0.0908203 10.9971 0.0908203H11.0005ZM10.0219 2.05673C10.3123 2.05627 10.6364 2.05673 11.0005 2.05673C13.9131 2.05673 14.2583 2.06718 15.4085 2.11946C16.4721 2.16809 17.0494 2.34582 17.4339 2.49514C17.943 2.69287 18.306 2.92923 18.6875 3.31105C19.0693 3.69287 19.3057 4.0565 19.5039 4.56559C19.6532 4.94968 19.8311 5.52696 19.8795 6.59059C19.9318 7.74059 19.9432 8.08605 19.9432 10.9974C19.9432 13.9088 19.9318 14.2542 19.8795 15.4042C19.8309 16.4679 19.6532 17.0451 19.5039 17.4292C19.3061 17.9383 19.0693 18.3008 18.6875 18.6824C18.3057 19.0642 17.9432 19.3006 17.4339 19.4983C17.0499 19.6483 16.4721 19.8256 15.4085 19.8742C14.2586 19.9265 13.9131 19.9379 11.0005 19.9379C8.08762 19.9379 7.74241 19.9265 6.59244 19.8742C5.52884 19.8251 4.95158 19.6474 4.56682 19.4981C4.05775 19.3004 3.69412 19.064 3.31231 18.6822C2.93051 18.3004 2.69415 17.9376 2.49597 17.4283C2.34666 17.0442 2.16871 16.467 2.1203 15.4033C2.06803 14.2533 2.05758 13.9079 2.05758 10.9947C2.05758 8.0815 2.06803 7.73787 2.1203 6.58787C2.16894 5.52423 2.34666 4.94696 2.49597 4.56241C2.6937 4.05332 2.93051 3.68968 3.31231 3.30787C3.69412 2.92605 4.05775 2.68968 4.56682 2.4915C4.95135 2.3415 5.52884 2.16423 6.59244 2.11537C7.59877 2.06991 7.98876 2.05627 10.0219 2.054V2.05673ZM16.8235 3.86809C16.1008 3.86809 15.5144 4.45377 15.5144 5.17673C15.5144 5.89946 16.1008 6.48582 16.8235 6.48582C17.5462 6.48582 18.1325 5.89946 18.1325 5.17673C18.1325 4.454 17.5462 3.86764 16.8235 3.86764V3.86809ZM11.0005 5.39764C7.90672 5.39764 5.39839 7.90605 5.39839 10.9999C5.39839 14.0938 7.90672 16.601 11.0005 16.601C14.0943 16.601 16.6017 14.0938 16.6017 10.9999C16.6017 7.90605 14.094 5.39764 11.0003 5.39764H11.0005ZM11.0005 7.36355C13.0086 7.36355 14.6367 8.9915 14.6367 10.9999C14.6367 13.0081 13.0086 14.6363 11.0005 14.6363C8.99214 14.6363 7.36424 13.0081 7.36424 10.9999C7.36424 8.9915 8.99214 7.36355 11.0005 7.36355V7.36355Z" fill="#FFFEE1"/>
</svg>
