<svg width="24" height="24" viewBox="0 0 24 24" fill="none" xmlns="http://www.w3.org/2000/svg">
<path fill-rule="evenodd" clip-rule="evenodd" d="M0.75 12C0.75 17.5625 4.8125 22.1875 10.125 23.125L10.1877 23.0748C10.1668 23.0708 10.1459 23.0667 10.125 23.0625V15.125H7.3125V12H10.125V9.5C10.125 6.6875 11.9375 5.125 14.5 5.125C15.3125 5.125 16.1875 5.25 17 5.375V8.25H15.5625C14.1875 8.25 13.875 8.9375 13.875 9.8125V12H16.875L16.375 15.125H13.875V23.0625C13.8541 23.0667 13.8332 23.0708 13.8123 23.0748L13.875 23.125C19.1875 22.1875 23.25 17.5625 23.25 12C23.25 5.8125 18.1875 0.75 12 0.75C5.8125 0.75 0.75 5.8125 0.75 12Z" fill="#FFFEE1"/>
</svg>
